<?xml version="1.0" encoding="UTF-8"?>
<!DOCTYPE svg PUBLIC "-//W3C//DTD SVG 1.1//EN"
    "http://www.w3.org/Graphics/SVG/1.1/DTD/svg11.dtd">
<svg
    version="1.1"
    xmlns="http://www.w3.org/2000/svg"
    xmlns:xlink="http://www.w3.org/1999/xlink"
    x="0px"
    y="0px"
    width="64px"
    height="64px"
    viewBox="0 0 64 64"
    style="enable-background:new 0 0 64 64;"
    xml:space="preserve">
  <g>
    <g
        style="opacity:0;">
      <rect
          x="0.5"
          y="0.5"
          style="fill:#FFFFFF;"
          width="64"
          height="64.002"/>
      <path
          style="fill:#004C4C;"
          d="M65,65.002H0V0h65V65.002z M1,64.002h63V1H1V64.002z"/>
    </g>
    <path
        style="fill:#FFFFFF;"
        d="M49.5,11.5h-34c-2.2,0-4,1.799-4,4v34c0,2.199,1.8,4,4,4h34c2.2,0,4-1.801,4-4v-34 C53.5,13.299,51.7,11.5,49.5,11.5z M29.848,36.918l-5.657,5.658c-0.244,0.244-0.564,0.366-0.884,0.366 c-0.32,0-0.64-0.122-0.885-0.366c-0.487-0.488-0.487-1.279,0-1.768l5.658-5.658c0.705-0.704,1.093-1.646,1.093-2.651 c0-1.005-0.388-1.946-1.093-2.651l-5.658-5.657c-0.487-0.487-0.487-1.278,0-1.768c0.488-0.488,1.28-0.488,1.769,0l5.657,5.657 c1.178,1.176,1.825,2.746,1.825,4.419C31.673,34.172,31.025,35.742,29.848,36.918z M36.918,35.15l5.658,5.658 c0.488,0.488,0.488,1.279,0,1.768c-0.244,0.244-0.564,0.366-0.885,0.366c-0.318,0-0.639-0.122-0.883-0.366l-5.657-5.658 c-2.436-2.436-2.436-6.401,0.001-8.838l5.656-5.657c0.488-0.488,1.279-0.488,1.768,0c0.488,0.489,0.488,1.279,0,1.768l-5.656,5.657 C35.457,31.311,35.457,33.69,36.918,35.15z"/>
  </g>
</svg>
