<?xml version="1.0" encoding="UTF-8" standalone="no"?>
<svg
   xmlns:dc="http://purl.org/dc/elements/1.1/"
   xmlns:cc="http://creativecommons.org/ns#"
   xmlns:rdf="http://www.w3.org/1999/02/22-rdf-syntax-ns#"
   xmlns:svg="http://www.w3.org/2000/svg"
   xmlns="http://www.w3.org/2000/svg"
   xmlns:sodipodi="http://sodipodi.sourceforge.net/DTD/sodipodi-0.dtd"
   xmlns:inkscape="http://www.inkscape.org/namespaces/inkscape"
   version="1"
   viewBox="0 0 48 40"
   enable-background="new 0 0 48 48"
   id="svg2"
   inkscape:version="0.48.4 r9939"
   width="100%"
   height="100%"
   sodipodi:docname="gallery.svg">
  <metadata>
    <rdf:RDF>
      <cc:Work
         rdf:about="">
        <dc:format>image/svg+xml</dc:format>
        <dc:type
           rdf:resource="http://purl.org/dc/dcmitype/StillImage" />
        <dc:title></dc:title>
      </cc:Work>
    </rdf:RDF>
  </metadata>
  <path
     style="fill:#942a09;fill-opacity:1"
     inkscape:connector-curvature="0"
     d="M 44,40 H 16 c -2.2,0 -4,-1.8 -4,-4 V 16 c 0,-2.2 1.8,-4 4,-4 h 28 c 2.2,0 4,1.8 4,4 v 20 c 0,2.2 -1.8,4 -4,4 z"
     id="path4-3" />
  <path
     d="M 38,34 H 10 C 7.8,34 6,32.2 6,30 V 10 C 6,7.8 7.8,6 10,6 h 28 c 2.2,0 4,1.8 4,4 v 20 c 0,2.2 -1.8,4 -4,4 z"
     id="path4"
     inkscape:connector-curvature="0"
     style="fill:#e65100" />
  <path
     d="M 32,28 H 4 C 1.8,28 0,26.2 0,24 V 4 C 0,1.8 1.8,0 4,0 h 28 c 2.2,0 4,1.8 4,4 v 20 c 0,2.2 -1.8,4 -4,4 z"
     id="path6"
     inkscape:connector-curvature="0"
     style="fill:#f57c00" />
  <circle
     cx="30"
     cy="16"
     r="3"
     id="circle8"
     sodipodi:cx="30"
     sodipodi:cy="16"
     sodipodi:rx="3"
     sodipodi:ry="3"
     style="fill:#fff9c4"
     transform="translate(-3,-8)" />
  <polygon
     points="17,17.9 8,31 26,31 "
     id="polygon10"
     style="fill:#942a09"
     transform="translate(-3,-8)" />
  <polygon
     points="28,23.5 22,31 34,31 "
     id="polygon12"
     style="fill:#bf360c"
     transform="translate(-3,-8)" />
</svg>
