<?xml version="1.0" encoding="UTF-8" standalone="no"?>
<svg version="1.1" viewBox="0 0 48 40" xmlns="http://www.w3.org/2000/svg">
  <path style="fill:#942a09" d="M 44,40 H 16 c -2.2,0 -4,-1.8 -4,-4 V 16 c 0,-2.2 1.8,-4 4,-4 h 28 c 2.2,0 4,1.8 4,4 v 20 c 0,2.2 -1.8,4 -4,4 z"/>
  <path style="fill:#e65100" d="M 38,34 H 10 C 7.8,34 6,32.2 6,30 V 10 C 6,7.8 7.8,6 10,6 h 28 c 2.2,0 4,1.8 4,4 v 20 c 0,2.2 -1.8,4 -4,4 z"/>
  <path style="fill:#f57c00" d="M 32,28 H 4 C 1.8,28 0,26.2 0,24 V 4 C 0,1.8 1.8,0 4,0 h 28 c 2.2,0 4,1.8 4,4 v 20 c 0,2.2 -1.8,4 -4,4 z"/>
  <circle style="fill:#fff9c4" cx="27" cy="8" r="3"/>
  <polygon style="fill:#942a09" points="23,23 14,9.9 5,23"/>
  <polygon style="fill:#bf360c" points="19,23 31,23 25,15.5"/>
</svg>
