<?xml version="1.0" encoding="utf-8" standalone="no"?>
<svg version="1.1" viewBox="0 0 82 100" xmlns="http://www.w3.org/2000/svg">
  <defs>
    <linearGradient id="gradient" x1="41" y1="0" x2="41" y2="100" gradientUnits="userSpaceOnUse">
      <stop style="stop-color:#f57c00;stop-opacity:1" offset="0"/>
      <stop style="stop-color:#e65100;stop-opacity:1" offset="1"/>
    </linearGradient>
  </defs>
  <path style="opacity:0.8;fill:url(#gradient)" d="m 50,64 c 0,-5 -4,-9 -9,-9 -5,0 -9,4 -9,9 0,3.5 1.9,6.37 4.8,7.94 L 31.96,88 c -0.54,1.84 0.47,2.9 2.21,2.9 h 13.66 c 2,0 2.6,-1.43 2.2,-2.9 L 45.28,71.9 C 48.16,70.4 49.97,67.27 50,64 Z M 22,44 H 60 V 31 C 60.14,21.67 52.45,12 41,12 30.1,12.28 22.24,20.5 22,31 Z m 60,49 c 0,4 -3,7 -7,7 H 7 C 3,100 0,97 0,93 V 51 c 0,-4 3,-7 7,-7 h 3 V 31 C 10,14 24,0 41,0 58,0 72,14 72,31 v 13 h 3 c 4,0 7,3 7,7 z"/>
</svg>
