<?xml version="1.0" encoding="UTF-8" standalone="no"?>
<svg
   xmlns:dc="http://purl.org/dc/elements/1.1/"
   xmlns:cc="http://creativecommons.org/ns#"
   xmlns:rdf="http://www.w3.org/1999/02/22-rdf-syntax-ns#"
   xmlns:svg="http://www.w3.org/2000/svg"
   xmlns="http://www.w3.org/2000/svg"
   xmlns:xlink="http://www.w3.org/1999/xlink"
   xmlns:sodipodi="http://sodipodi.sourceforge.net/DTD/sodipodi-0.dtd"
   xmlns:inkscape="http://www.inkscape.org/namespaces/inkscape"
   viewBox="0 -256 82.000005 99.999891"
   id="svg2989"
   version="1.1"
   inkscape:version="0.48.4 r9939"
   width="100%"
   height="100%"
   sodipodi:docname="lock.svg">
  <metadata
     id="metadata2999">
    <rdf:RDF>
      <cc:Work
         rdf:about="">
        <dc:format>image/svg+xml</dc:format>
        <dc:type
           rdf:resource="http://purl.org/dc/dcmitype/StillImage" />
        <dc:title></dc:title>
      </cc:Work>
    </rdf:RDF>
  </metadata>
  <defs
     id="defs2997">
    <linearGradient
       id="linearGradient10444">
      <stop
         style="stop-color:#f57c00;stop-opacity:1;"
         offset="0"
         id="stop10446" />
      <stop
         style="stop-color:#e65100;stop-opacity:1;"
         offset="1"
         id="stop10448" />
    </linearGradient>
    <linearGradient
       inkscape:collect="always"
       xlink:href="#linearGradient10444"
       id="linearGradient10450"
       x1="575.99994"
       y1="1408.0015"
       x2="575.99994"
       y2="1.6733768e-05"
       gradientUnits="userSpaceOnUse" />
  </defs>
  <g
     transform="matrix(0.07118056,0,0,-0.07102265,0,-156.00011)"
     id="g2991">
    <path
       d="m 704,512 q 0,53 -37.5,90.5 Q 629,640 576,640 523,640 485.5,602.5 448,565 448,512 q 0,-37 19,-67 19,-30 51,-47 L 449,169 q -5,-15 5,-28 10,-13 26,-13 h 192 q 16,0 26,13 10,13 5,28 l -69,229 q 32,17 51,47 19,30 19,67 z M 320,768 h 512 v 192 q 0,106 -75,181 -75,75 -181,75 -106,0 -181,-75 -75,-75 -75,-181 V 768 z m 832,-96 V 96 Q 1152,56 1124,28 1096,0 1056,0 H 96 Q 56,0 28,28 0,56 0,96 v 576 q 0,40 28,68 28,28 68,28 h 32 v 192 q 0,184 132,316 132,132 316,132 184,0 316,-132 132,-132 132,-316 V 768 h 32 q 40,0 68,-28 28,-28 28,-68 z"
       id="path2993"
       inkscape:connector-curvature="0"
       style="fill:url(#linearGradient10450);fill-opacity:1;opacity:0.8" />
  </g>
</svg>
