<?xml version="1.0" encoding="UTF-8" standalone="no"?>
<svg version="1.1" viewBox="0 0 86 86" xmlns="http://www.w3.org/2000/svg" xmlns:xlink="http://www.w3.org/1999/xlink">
  <defs>
    <linearGradient id="SVGID_1_" gradientUnits="userSpaceOnUse" x1="43" y1="0.3" x2="43" y2="85.7">
      <stop offset="0" style="stop-color:#f57c00;stop-opacity:1"/>
      <stop offset="1" style="stop-color:#e65100;stop-opacity:1"/>
    </linearGradient>
    <linearGradient id="linearGradient3015" xlink:href="#SVGID_1_" gradientUnits="userSpaceOnUse" y2="85.7" x2="43" y1="0.3" x1="43"/>
  </defs>
  <rect style="opacity:0;fill:#fffff" width="86" height="86"/>
  <path style="fill:url(#linearGradient3015)" d="M 43,0.3 C 19.417,0.3 0.3,19.418 0.3,43 c 0,0.408 0,41.277 0,41.277 0,0.786 0.637,1.423 1.423,1.423 H 84.277 c 0.786,0 1.423,-0.637 1.423,-1.423 0,0 0,-40.908 0,-41.277 C 85.7,19.418 66.584,0.3 43,0.3 Z"/>
  <path style="fill:#942a09" d="M 56,76 33,26 10,76 Z"/>
  <path style="fill:#bf360c" d="M 61,56 45,76 h 31 z"/>
  <circle style="fill:#fff9c4" cx="59" cy="32" r="8"/>
</svg>
